<?xml version="1.0" encoding="utf-8"?>
<!-- Generator: Adobe Illustrator 20.1.0, SVG Export Plug-In . SVG Version: 6.00 Build 0)  -->
<svg version="1.1" id="Layer_1" xmlns="http://www.w3.org/2000/svg" xmlns:xlink="http://www.w3.org/1999/xlink" x="0px" y="0px"
	 viewBox="0 0 960 560" style="enable-background:new 0 0 960 560;" xml:space="preserve">
<style type="text/css">
	.st0{fill:#FFFFFF;stroke:#FFFFFF;stroke-width:2;stroke-miterlimit:10;}
	.st1{fill:#FFFDFD;stroke:#FFFFFF;stroke-width:2;stroke-miterlimit:10;}
	.st2{fill:#FFFFFF;stroke:#FFFFFF;stroke-width:3;stroke-miterlimit:10;}
	.st3{fill:#FFFFFF;stroke:#FFFFFF;stroke-width:4;stroke-miterlimit:10;}
	.st4{fill:#FFFFFF;}
	.st5{font-family:'MyriadPro-Regular';}
	.st6{font-size:52px;}
</style>
<circle class="st0" cx="149.4" cy="245.9" r="19.4"/>
<path class="st0" d="M185.7,304c-3-7.4-6.3-14.6-10.2-21.6c-5.9-10.6-15-12.8-26.6-12.4c-10.6-0.3-20.1,1.3-25.7,11
	c-11.8,20.8-18.8,44.6-27.3,67c0,0,0.4,8.7,7.8,3.4c26.5-52,26.5-51.6,26.5-51.6c-2.2,17.8-5.8,35.5-8.7,53.2
	c-0.7,4.4-1.4,8.7-2.1,13.1c-0.6,3.5-4.1,11.3-0.6,13.5c2.5,1.5,8.2-0.4,11-0.4l4.1,71.7c0,0,3.9,8.7,9.3,0.3
	c4.1-71.5,4.1-71.2,4.1-71.2h1.3h0.5h1.3c0,0,0-0.4,4.1,71.1c5.3,8.4,9.3-0.1,9.3-0.1s4.1-71.8,4.1-71.8c2.1,0,11.3,1.2,12.5-0.4
	c1.8-2.5-1.2-9.1-1.7-11.7c-1.5-6.9-2.4-13.9-3.5-20.9c-1.3-7.9-2.6-15.8-3.9-23.6c-0.6-3.8-1.2-7.6-1.9-11.4
	c-0.4-2.2-0.3-9.9-1.9-11.4c0,0,0.5,0.8,26.5,51.7c7.5,5.3,7.8-3.4,7.8-3.4C196.5,333.6,191.6,318.5,185.7,304z"/>
<circle class="st1" cx="305.9" cy="245.9" r="19.4"/>
<path class="st0" d="M336.4,285c-1.4-2.9-3.1-5.5-5.4-7.7c-5.9-5.6-14.5-7.1-22.6-7.5c-10.8-0.6-22.9,0.6-30.2,8.6
	c-3.8,4.1-5.7,9.6-7.6,14.9c-5.9,16.7-11.8,33.3-17.7,50c-0.7,2-1.4,4.2-1.1,6.3c0.3,2.1,2,4.2,4.2,4.1c2.5-0.1,4-2.7,5-4.9
	c7.6-16.7,15.2-33.4,22.8-50c1.2,44.1-0.5,88.2-1.8,132.3c-0.2,5.8-0.4,11.6-0.6,17.4c0,0,7.4,13.3,14.7,0.9
	c8.6-83,8.8-87.5,8.8-87.7c0,0.2,0.4,4.7,9,87.7c7.3,12.5,14.9-0.9,14.9-0.9s-3.5-107.6-3.6-108.5c-0.4-13.6,0.8-27.5,1.2-41.2
	c7.6,16.6,15.2,33.3,22.8,49.9c1,2.2,2.5,4.8,5,4.9c2.2,0.1,3.9-2,4.2-4.2s-0.4-4.3-1.1-6.3c-5.9-16.6-11.7-33.1-17.6-49.7
	C338.8,290.6,337.8,287.7,336.4,285z"/>
<circle class="st0" cx="227.3" cy="355.1" r="12.3"/>
<path class="st0" d="M258.1,356.5c-4,4.2-18.8,17.6-20.7,15.9c-1.6-1.4-7.9-1.6-10-1.7c0,0,0.2,0,0,0c-0.2,0,0,0,0,0
	c-2.1,0-8.3,0.2-9.9,1.7c-1.9,1.7-16.5-11.7-20.6-15.9c-4-4.2-7.3-5.6-7.5-0.8c6.8,9.5,13,19.8,22.6,26.7c8.4,6.1,4.4,27.3,3.4,36.3
	l-2.1,32.6c0,0,4.6,8.1,9.4,0c2.9-18.3,4.2-27,4.9-31.2c0.6,4.2,2,12.9,4.9,31.2c4.7,8.1,9.4,0,9.4,0s-2.1-32.6-2.1-32.6
	c-1-9.3-4.2-26.1,1.3-34.2c1.8-2.7,5-3.8,7.3-5.9c1.8-1.7,3.3-3.9,4.8-5.8c4.3-5.6,8.4-11.3,12.5-17.1
	C265.4,350.9,262.2,352.4,258.1,356.5z"/>
<path class="st2" d="M233,221.1c1.8,0,3.2,1.4,3.2,3.2V265c0,0,0,13.1-14.7,12.4c-1.7-0.1-3.1-1.5-3.1-3.2v-4c0-1.8,1.6-3.3,3.4-3.2
	l0,0c0.8,0.1,1.6-0.2,2.2-0.7c0.2-0.2,0.5-0.4,0.8-0.7c0.7-0.6,1.1-1.5,1.1-2.4v-38.9c0-1.8,1.4-3.2,3.2-3.2H233z"/>
<path class="st3" d="M323,130.1c-43.7-26.7-86.3-25.5-91.5-25.3c-0.4,0-0.7,0-1.1,0c-5.2-0.2-47.4-1.4-91.1,25.3
	c-29.4,18-49.1,39.8-60.4,54.1c-5.2,6.6-1.5,16.4,6.8,17.8c12.6,2.2,28.4,6,36.3,12c2.7,2,6.1,2.8,9.4,2c20.5-4.9,35,0.7,42.1,6.8
	c2.6,2.2,6.1,3,9.5,2.3c21.4-4.6,35.7-3.7,44-0.6c2.6,1,5.4,1,8,0c8.6-3.2,22.8-4.1,44.2,0.5c3.3,0.7,6.8-0.1,9.5-2.3
	c7.2-6,21.9-11.7,42.5-6.8c3.3,0.8,6.7,0,9.4-2c7.9-5.9,23.6-9.7,36.2-12c8.3-1.5,12-11.3,6.8-17.9C372.2,169.8,352.4,148,323,130.1
	z"/>
<text transform="matrix(1 0 0 1 411 265.2639)"><tspan x="0" y="0" class="st4 st5 st6">LIFE INSURANCE </tspan><tspan x="0" y="62.4" class="st4 st5 st6">PROTECT YOUR FAMILY</tspan></text>
</svg>
